<svg width="139" height="100" viewBox="0 0 139 100" fill="none" xmlns="http://www.w3.org/2000/svg">
<path d="M114.742 29.8276L93.0901 21.1837C92.759 21.0513 92.4051 20.9856 92.0487 20.9905C91.6923 20.9953 91.3403 21.0706 91.0129 21.212L69.6065 30.4536M69.6037 30.4032L47.9514 21.759C47.6203 21.6266 47.2664 21.5609 46.91 21.5658C46.5536 21.5707 46.2016 21.646 45.8742 21.7875L24.4678 31.0292" stroke="#E1E4E5" stroke-linecap="round" stroke-linejoin="round"/>
<path d="M47.8324 19.2554C49.1447 19.7793 49.785 21.2708 49.2625 22.5867C48.7401 23.9027 47.2528 24.5448 45.9405 24.0209C44.6283 23.497 43.988 22.0055 44.5104 20.6895C45.0328 19.3736 46.5201 18.7315 47.8324 19.2554Z" fill="#E1E4E5"/>
<path d="M92.8729 18.9312C94.1852 19.4551 94.8255 20.9465 94.3031 22.2625C93.7806 23.5784 92.2933 24.2205 90.981 23.6966C89.6688 23.1727 89.0285 21.6813 89.5509 20.3653C90.0733 19.0494 91.5607 18.4073 92.8729 18.9312Z" fill="#E1E4E5"/>
<path d="M114.742 78.417L93.0901 69.773C92.759 69.6406 92.4051 69.575 92.0487 69.5798C91.6923 69.5847 91.3403 69.66 91.0129 69.8013L69.6065 79.043M69.6037 78.9925L47.9514 70.3483C47.6203 70.2159 47.2664 70.1503 46.91 70.1552C46.5536 70.1601 46.2016 70.2354 45.8742 70.3769L24.4678 79.6185" stroke="#E1E4E5" stroke-linecap="round" stroke-linejoin="round"/>
<path d="M47.8319 67.8457C49.1442 68.3696 49.7845 69.8611 49.262 71.177C48.7396 72.493 47.2523 73.1351 45.94 72.6112C44.6278 72.0873 43.9875 70.5958 44.5099 69.2799C45.0323 67.9639 46.5196 67.3218 47.8319 67.8457Z" fill="#E1E4E5"/>
<path d="M70.3422 76.8325C71.6544 77.3564 72.2947 78.8479 71.7723 80.1639C71.2499 81.4798 69.7626 82.1219 68.4503 81.598C67.138 81.0741 66.4977 79.5826 67.0202 78.2667C67.5426 76.9507 69.0299 76.3086 70.3422 76.8325Z" fill="#E1E4E5"/>
<path d="M92.8724 67.5215C94.1847 68.0454 94.825 69.5369 94.3026 70.8528C93.7801 72.1688 92.2928 72.8109 90.9806 72.287C89.6683 71.7631 89.028 70.2716 89.5504 68.9556C90.0729 67.6397 91.5602 66.9976 92.8724 67.5215Z" fill="#E1E4E5"/>
<path d="M129.26 51.6779L100.663 40.2613C100.226 40.0864 99.7584 39.9998 99.2876 40.0062C98.8169 40.0126 98.352 40.1121 97.9196 40.2988L69.6471 52.5046M69.6436 52.4379L41.0463 41.0213C40.6089 40.8464 40.1415 40.7597 39.6708 40.7662C39.2 40.7726 38.7352 40.872 38.3028 41.0588L10.0303 53.2646" stroke="#E1E4E5" stroke-linecap="round" stroke-linejoin="round"/>
<path d="M40.8881 37.7149C42.6213 38.4068 43.4669 40.3766 42.7769 42.1146C42.087 43.8526 40.1227 44.7006 38.3895 44.0087C36.6564 43.3168 35.8108 41.3469 36.5008 39.609C37.1907 37.871 39.155 37.023 40.8881 37.7149Z" fill="#E1E4E5"/>
<path d="M11 50.3433C12.7331 51.0352 13.5787 53.005 12.8887 54.743C12.1988 56.481 10.2345 57.329 8.50136 56.6371C6.76825 55.9452 5.92261 53.9754 6.61258 52.2374C7.30255 50.4994 9.26685 49.6514 11 50.3433Z" fill="#E1E4E5"/>
<path d="M100.375 37.2862C102.108 37.9781 102.954 39.9479 102.264 41.6859C101.574 43.4239 99.6095 44.2719 97.8764 43.58C96.1432 42.8881 95.2976 40.9182 95.9876 39.1803C96.6776 37.4423 98.6418 36.5943 100.375 37.2862Z" fill="#E1E4E5"/>
<path d="M130.464 49.2764C132.197 49.9683 133.043 51.9381 132.353 53.6761C131.663 55.4141 129.699 56.2621 127.966 55.5702C126.233 54.8783 125.387 52.9085 126.077 51.1705C126.767 49.4325 128.731 48.5845 130.464 49.2764Z" fill="#E1E4E5"/>
<path d="M88.2037 46.8248C88.2037 36.471 79.8338 28.0776 69.5091 28.0776C59.1843 28.0776 50.8145 36.471 50.8145 46.8248C50.8145 57.1785 59.1843 65.5719 69.5091 65.5719C79.8338 65.5719 88.2037 57.1785 88.2037 46.8248Z" fill="#6FC067"/>
<path fill-rule="evenodd" clip-rule="evenodd" d="M78.0057 54.6892V55.9429C78.0057 56.6347 77.4531 57.1963 76.7722 57.1963H61.9688C61.2879 57.1963 60.7354 56.6347 60.7354 55.9429V54.6692C60.7354 50.8759 65.0011 48.4113 69.3706 48.4113C73.7399 48.4113 78.0057 50.8771 78.0057 54.6692M72.4667 37.3987C74.1771 39.1142 74.1771 41.8954 72.4667 43.6106C70.756 45.3261 67.9826 45.3261 66.2722 43.6106C64.5615 41.8954 64.5615 39.1142 66.2722 37.3987C67.9826 35.6835 70.756 35.6835 72.4667 37.3987Z" fill="white"/>
<path d="M37.3892 81.253C37.3892 70.8992 29.0194 62.5059 18.6946 62.5059C8.36987 62.5059 0 70.8992 0 81.253C0 91.6067 8.36987 100 18.6946 100C29.0194 100 37.3892 91.6067 37.3892 81.253Z" fill="#6FC067"/>
<path fill-rule="evenodd" clip-rule="evenodd" d="M27.1914 89.1172V90.3706C27.1914 91.0626 26.6387 91.6242 25.9578 91.6242H11.1546C10.4736 91.6242 9.9209 91.0626 9.9209 90.3706V89.0969C9.9209 85.3036 14.1867 82.8392 18.5562 82.8392C22.9257 82.8392 27.1914 85.305 27.1914 89.0969M21.6522 71.8267C23.3629 73.5419 23.3629 76.3231 21.6522 78.0385C19.9418 79.7538 17.1682 79.7538 15.4577 78.0385C13.7471 76.3231 13.7471 73.5419 15.4577 71.8267C17.1682 70.1112 19.9418 70.1112 21.6522 71.8267Z" fill="white"/>
<path d="M139 81.253C139 70.8992 130.63 62.5059 120.305 62.5059C109.981 62.5059 101.611 70.8992 101.611 81.253C101.611 91.6067 109.981 100 120.305 100C130.63 100 139 91.6067 139 81.253Z" fill="#6FC067"/>
<path fill-rule="evenodd" clip-rule="evenodd" d="M128.802 89.1172V90.3706C128.802 91.0626 128.25 91.6242 127.569 91.6242H112.765C112.084 91.6242 111.532 91.0626 111.532 90.3706V89.0969C111.532 85.3036 115.798 82.8392 120.167 82.8392C124.537 82.8392 128.802 85.305 128.802 89.0969M123.263 71.8267C124.974 73.5419 124.974 76.3231 123.263 78.0385C121.553 79.7538 118.779 79.7538 117.069 78.0385C115.358 76.3231 115.358 73.5419 117.069 71.8267C118.779 70.1112 121.553 70.1112 123.263 71.8267Z" fill="white"/>
<path d="M139 18.7471C139 8.39337 130.63 0 120.305 0C109.981 0 101.611 8.39337 101.611 18.7471C101.611 29.1009 109.981 37.4943 120.305 37.4943C130.63 37.4943 139 29.1009 139 18.7471Z" fill="#6FC067"/>
<path fill-rule="evenodd" clip-rule="evenodd" d="M128.802 26.6118V27.8652C128.802 28.5573 128.25 29.1189 127.569 29.1189H112.765C112.084 29.1189 111.532 28.5573 111.532 27.8652V26.5915C111.532 22.7982 115.798 20.3339 120.167 20.3339C124.537 20.3339 128.802 22.7996 128.802 26.5915M123.263 9.32128C124.974 11.0365 124.974 13.8177 123.263 15.5332C121.553 17.2484 118.779 17.2484 117.069 15.5332C115.358 13.8177 115.358 11.0365 117.069 9.32128C118.779 7.6058 121.553 7.6058 123.263 9.32128Z" fill="white"/>
<path d="M37.3892 18.7471C37.3892 8.39337 29.0194 0 18.6946 0C8.36987 0 0 8.39337 0 18.7471C0 29.1009 8.36987 37.4943 18.6946 37.4943C29.0194 37.4943 37.3892 29.1009 37.3892 18.7471Z" fill="#6FC067"/>
<path fill-rule="evenodd" clip-rule="evenodd" d="M27.1914 26.6118V27.8652C27.1914 28.5573 26.6387 29.1189 25.9578 29.1189H11.1546C10.4736 29.1189 9.9209 28.5573 9.9209 27.8652V26.5915C9.9209 22.7982 14.1867 20.3339 18.5562 20.3339C22.9257 20.3339 27.1914 22.7996 27.1914 26.5915M21.6522 9.32128C23.3629 11.0365 23.3629 13.8177 21.6522 15.5332C19.9418 17.2484 17.1682 17.2484 15.4577 15.5332C13.7471 13.8177 13.7471 11.0365 15.4577 9.32128C17.1682 7.6058 19.9418 7.6058 21.6522 9.32128Z" fill="white"/>
</svg>
