<svg xmlns="http://www.w3.org/2000/svg" width="24" height="24" viewBox="0 0 24 24" fill="none">
  <path d="M2 20V17.75H4V5.5C4 5.0875 4.14688 4.73438 4.44062 4.44063C4.73438 4.14688 5.0875 4 5.5 4H21V5.5H5.5V17.75H11.5V20H2ZM13.75 20C13.5375 20 13.3594 19.9281 13.2156 19.7844C13.0719 19.6406 13 19.4625 13 19.25V7.75C13 7.5375 13.0719 7.35938 13.2156 7.21563C13.3594 7.07188 13.5375 7 13.75 7H21.25C21.4625 7 21.6406 7.07188 21.7844 7.21563C21.9281 7.35938 22 7.5375 22 7.75V19.25C22 19.4625 21.9281 19.6406 21.7844 19.7844C21.6406 19.9281 21.4625 20 21.25 20H13.75Z" fill="white"/>
</svg>