<svg xmlns="http://www.w3.org/2000/svg" width="24" height="24" viewBox="0 0 24 24" fill="none">
  <path d="M18.525 13.025V10.975H23.15V13.025H18.525ZM20.375 20.575L16.65 17.8L17.9 16.15L21.6 18.9L20.375 20.575ZM17.975 7.82499L16.725 6.17499L20.375 3.42499L21.6 5.07499L17.975 7.82499ZM4.09998 19.625V15.625H2.92498C2.32498 15.5583 1.82914 15.3 1.43748 14.85C1.04581 14.4 0.849976 13.875 0.849976 13.275V10.725C0.849976 10.075 1.08331 9.51665 1.54998 9.04999C2.01664 8.58332 2.57498 8.34999 3.22498 8.34999H7.29998L13.125 4.87499V19.125L7.29998 15.625H6.57498V19.625H4.09998ZM14.125 15.975V7.99999C14.7583 8.44999 15.2625 9.02499 15.6375 9.72499C16.0125 10.425 16.2 11.1833 16.2 12C16.2 12.8167 16.0125 13.575 15.6375 14.275C15.2625 14.975 14.7583 15.5417 14.125 15.975Z" fill="white"/>
</svg>