<svg xmlns="http://www.w3.org/2000/svg" width="24" height="24" viewBox="0 0 24 24" fill="none">
  <path d="M16.5 19.25C17.2667 19.25 17.9167 18.9875 18.45 18.4625C18.9833 17.9375 19.25 17.2833 19.25 16.5C19.25 15.7333 18.9833 15.0833 18.45 14.55C17.9167 14.0167 17.2667 13.75 16.5 13.75C15.7167 13.75 15.0625 14.0167 14.5375 14.55C14.0125 15.0833 13.75 15.7333 13.75 16.5C13.75 17.2833 14.0125 17.9375 14.5375 18.4625C15.0625 18.9875 15.7167 19.25 16.5 19.25ZM21.6 22.65L18.925 20C18.575 20.2333 18.1958 20.4167 17.7875 20.55C17.3792 20.6833 16.95 20.75 16.5 20.75C15.3167 20.75 14.3125 20.3375 13.4875 19.5125C12.6625 18.6875 12.25 17.6833 12.25 16.5C12.25 15.3333 12.6625 14.3333 13.4875 13.5C14.3125 12.6667 15.3167 12.25 16.5 12.25C17.6667 12.25 18.6667 12.6667 19.5 13.5C20.3333 14.3333 20.75 15.3333 20.75 16.5C20.75 16.9667 20.6792 17.4042 20.5375 17.8125C20.3958 18.2208 20.2083 18.6 19.975 18.95L22.625 21.6L21.6 22.65ZM4.5 22C4.1 22 3.75 21.85 3.45 21.55C3.15 21.25 3 20.9 3 20.5V3.5C3 3.1 3.15 2.75 3.45 2.45C3.75 2.15 4.1 2 4.5 2H13.525L19 7.475V11.325C18.6 11.1417 18.1917 11 17.775 10.9C17.3583 10.8 16.9333 10.75 16.5 10.75C15.8 10.75 15.1458 10.8583 14.5375 11.075C13.9292 11.2917 13.3833 11.6 12.9 12H6.975V13.5H11.6C11.35 13.9 11.1542 14.3333 11.0125 14.8C10.8708 15.2667 10.7833 15.75 10.75 16.25H6.975V17.75H10.875C11.1083 18.75 11.5708 19.6333 12.2625 20.4C12.9542 21.1667 13.8 21.7 14.8 22H4.5ZM12.775 8.15H17.5L12.775 3.5V8.15Z" fill="white"/>
</svg>