<svg xmlns="http://www.w3.org/2000/svg" width="24" height="24" viewBox="0 0 24 24" fill="none">
  <path d="M14.5 8H15.5V7H14.5V8ZM12.5 8H13.5V7H12.5V8ZM14 22.5L7 20.55V11H8.95L15.15 13.3C15.7 13.5 16.1458 13.85 16.4875 14.35C16.8292 14.85 17 15.4 17 16H15C14.3 16 13.75 15.975 13.35 15.925C12.95 15.875 12.6 15.8 12.3 15.7L10.3 15.05L10 16L11.575 16.575C12.0417 16.7583 12.4667 16.875 12.85 16.925C13.2333 16.975 13.6833 17 14.2 17H19C20.1 17 20.875 17.1792 21.325 17.5375C21.775 17.8958 22 18.3833 22 19V20L14 22.5ZM1 22V11H5V22H1ZM18.525 14C18.2917 13.45 17.9583 12.9667 17.525 12.55C17.0917 12.1333 16.5583 11.8083 15.925 11.575L9 9H7V6.5L14 1.5L21 6.5V14H18.525ZM14.5 10H15.5V9H14.5V10ZM12.5 10H13.5V9H12.5V10Z" fill="white"/>
</svg>