<svg width="167" height="101" viewBox="0 0 167 101" fill="none" xmlns="http://www.w3.org/2000/svg">
<path fill-rule="evenodd" clip-rule="evenodd" d="M20.145 21.0749V11.4139C20.145 6.07843 24.4427 1.75293 29.7439 1.75293H77.738C83.0394 1.75293 87.3369 6.07843 87.3369 11.4139V35.5664" fill="white"/>
<mask id="mask0_175_2512" style="mask-type:luminance" maskUnits="userSpaceOnUse" x="20" y="0" width="68" height="35">
<path fill-rule="evenodd" clip-rule="evenodd" d="M20.6582 19.7126V10.0516C20.6582 4.71613 24.9559 0.390625 30.257 0.390625H78.2512C83.5526 0.390625 87.85 4.71613 87.85 10.0516V34.2041" fill="#E1E4E5"/>
</mask>
<g mask="url(#mask0_175_2512)">
<path d="M21.5951 19.7128V10.0518H19.7212V19.7128H21.5951ZM21.5951 10.0518C21.5951 5.23709 25.4733 1.33384 30.257 1.33384V-0.552246C24.4384 -0.552246 19.7212 4.1955 19.7212 10.0518H21.5951ZM30.257 1.33384H78.2512V-0.552246H30.257V1.33384ZM78.2512 1.33384C83.0351 1.33384 86.913 5.23709 86.913 10.0518H88.787C88.787 4.1955 84.07 -0.552246 78.2512 -0.552246V1.33384ZM86.913 10.0518V34.2043H88.787V10.0518H86.913Z" fill="#E1E4E5"/>
</g>
<path d="M52.4387 19.5134L52.4389 19.5139C52.9202 20.2398 53.572 20.835 54.3366 21.2466C55.1011 21.6582 55.9548 21.8735 56.8219 21.8734H87.85C92.8926 21.8734 96.9804 25.9876 96.9804 31.0628V64.8764C96.9804 69.9516 92.8926 74.0658 87.85 74.0658H20.6582C15.6156 74.0658 11.5278 69.9516 11.5278 64.8764V16.5713C11.5278 11.4961 15.6156 7.38185 20.6582 7.38185H42.0887C42.8041 7.38001 43.5089 7.55661 44.14 7.89586C44.7711 8.2351 45.3088 8.72643 45.7052 9.32593L52.4387 19.5134Z" fill="white" stroke="#E1E4E5" stroke-width="0.943501"/>
<path fill-rule="evenodd" clip-rule="evenodd" d="M49.2046 32.6794V23.0184C49.2046 17.6829 53.502 13.3574 58.8034 13.3574H106.798C112.099 13.3574 116.396 17.6829 116.396 23.0184V47.1709" fill="white"/>
<mask id="mask1_175_2512" style="mask-type:luminance" maskUnits="userSpaceOnUse" x="49" y="13" width="68" height="35">
<path fill-rule="evenodd" clip-rule="evenodd" d="M49.2046 32.6794V23.0184C49.2046 17.6829 53.502 13.3574 58.8034 13.3574H106.798C112.099 13.3574 116.396 17.6829 116.396 23.0184V47.1709" fill="#E1E4E5"/>
</mask>
<g mask="url(#mask1_175_2512)">
<path d="M50.1415 32.6796V23.0186H48.2676V32.6796H50.1415ZM50.1415 23.0186C50.1415 18.2039 54.0197 14.3006 58.8034 14.3006V12.4146C52.9845 12.4146 48.2676 17.1623 48.2676 23.0186H50.1415ZM58.8034 14.3006H106.798V12.4146H58.8034V14.3006ZM106.798 14.3006C111.581 14.3006 115.459 18.2039 115.459 23.0186H117.333C117.333 17.1623 112.616 12.4146 106.798 12.4146V14.3006ZM115.459 23.0186V47.1711H117.333V23.0186H115.459Z" fill="#E1E4E5"/>
</g>
<path d="M80.9849 32.4807L80.9853 32.4811C81.4665 33.2071 82.1183 33.8023 82.8828 34.2139C83.6473 34.6255 84.501 34.8408 85.368 34.8406H116.396C121.439 34.8406 125.527 38.9549 125.527 44.0301V77.8436C125.527 82.9189 121.439 87.0331 116.396 87.0331H49.2046C44.162 87.0331 40.0742 82.9189 40.0742 77.8436V29.5386C40.0742 24.4634 44.162 20.3491 49.2046 20.3491H70.635C71.3505 20.3473 72.0552 20.5238 72.6863 20.8631C73.3173 21.2023 73.855 21.6937 74.2513 22.2932L80.9849 32.4807Z" fill="white" stroke="#E1E4E5" stroke-width="0.943501"/>
<path fill-rule="evenodd" clip-rule="evenodd" d="M77.7505 45.6467V35.9857C77.7505 30.65 82.0482 26.3247 87.3493 26.3247H135.344C140.645 26.3247 144.943 30.65 144.943 35.9857V60.1382" fill="white"/>
<mask id="mask2_175_2512" style="mask-type:luminance" maskUnits="userSpaceOnUse" x="77" y="26" width="68" height="35">
<path fill-rule="evenodd" clip-rule="evenodd" d="M77.7505 45.6467V35.9857C77.7505 30.65 82.0482 26.3247 87.3493 26.3247H135.344C140.645 26.3247 144.943 30.65 144.943 35.9857V60.1382" fill="#E1E4E5"/>
</mask>
<g mask="url(#mask2_175_2512)">
<path d="M78.6874 45.6469V35.9859H76.8135V45.6469H78.6874ZM78.6874 35.9859C78.6874 31.1709 82.5656 27.2679 87.3493 27.2679V25.3818C81.5307 25.3818 76.8135 30.1294 76.8135 35.9859H78.6874ZM87.3493 27.2679H135.344V25.3818H87.3493V27.2679ZM135.344 27.2679C140.127 27.2679 144.006 31.1709 144.006 35.9859H145.879C145.879 30.1294 141.162 25.3818 135.344 25.3818V27.2679ZM144.006 35.9859V60.1384H145.879V35.9859H144.006Z" fill="#E1E4E5"/>
</g>
<path d="M109.531 45.4475L109.531 45.4482C110.013 46.174 110.664 46.7691 111.429 47.1807C112.193 47.5923 113.047 47.8075 113.914 47.8074H144.942C149.985 47.8074 154.073 51.9217 154.073 56.9969V90.8104C154.073 95.8857 149.985 99.9999 144.942 99.9999H77.7505C72.7079 99.9999 68.6201 95.8857 68.6201 90.8104V42.5054C68.6201 37.4302 72.7079 33.3159 77.7505 33.3159H99.1812C99.8966 33.3142 100.601 33.4909 101.232 33.8301C101.863 34.1693 102.401 34.6606 102.797 35.26L109.531 45.4475Z" fill="white" stroke="#E1E4E5" stroke-width="0.943501"/>
<path d="M157.771 93.9261L147.762 83.8521" stroke="#6FC067" stroke-width="5.26615" stroke-linecap="round" stroke-linejoin="round"/>
<path d="M128.845 89.7645C144.786 89.7645 157.708 76.7583 157.708 60.7143C157.708 44.6703 144.786 31.6641 128.845 31.6641C112.904 31.6641 99.9819 44.6703 99.9819 60.7143C99.9819 76.7583 112.904 89.7645 128.845 89.7645Z" fill="white" stroke="#6FC067" stroke-width="4.83049" stroke-linecap="round" stroke-linejoin="round"/>
<path d="M157.404 32.5797C154.336 34.1117 150.264 32.1419 150.264 32.1419C150.264 32.1419 151.169 27.6895 154.238 26.1599C157.307 24.628 161.377 26.5956 161.377 26.5956C161.377 26.5956 160.472 31.048 157.404 32.5797Z" fill="url(#paint0_linear_175_2512)"/>
<path d="M22.8657 63.295C27.5913 66.1456 34.371 63.5105 34.371 63.5105C34.371 63.5105 33.4844 56.2548 28.7559 53.4072C24.0303 50.5567 17.2534 53.1887 17.2534 53.1887C17.2534 53.1887 18.1398 60.4445 22.8657 63.295Z" fill="url(#paint1_linear_175_2512)"/>
<path d="M54.3976 80.6608C53.3773 80.6608 52.5502 79.8283 52.5502 78.8013C52.5502 77.7744 53.3773 76.9419 54.3976 76.9419C55.418 76.9419 56.2451 77.7744 56.2451 78.8013C56.2451 79.8283 55.418 80.6608 54.3976 80.6608Z" fill="#E1E4E5"/>
<path d="M13.9472 80.8315C12.4734 80.8315 11.2787 79.6291 11.2787 78.1457C11.2787 76.6624 12.4734 75.46 13.9472 75.46C15.421 75.46 16.6157 76.6624 16.6157 78.1457C16.6157 79.6291 15.421 80.8315 13.9472 80.8315Z" fill="#E1E4E5"/>
<path d="M164.969 75.1359C163.847 75.1359 162.938 74.2207 162.938 73.0916C162.938 71.9626 163.847 71.0474 164.969 71.0474C166.091 71.0474 167 71.9626 167 73.0916C167 74.2207 166.091 75.1359 164.969 75.1359Z" fill="#E1E4E5"/>
<path d="M134.889 15.6343C133.642 15.6343 132.631 14.6168 132.631 13.3616C132.631 12.1064 133.642 11.0889 134.889 11.0889C136.136 11.0889 137.147 12.1064 137.147 13.3616C137.147 14.6168 136.136 15.6343 134.889 15.6343Z" fill="#E1E4E5"/>
<path d="M4.05522 35.3996C4.05522 36.5267 3.14743 37.4404 2.02761 37.4404C0.907793 37.4404 0 36.5267 0 35.3996C0 34.2726 0.907793 33.3589 2.02761 33.3589C3.14743 33.3589 4.05522 34.2726 4.05522 35.3996Z" fill="#E1E4E5"/>
<path d="M80.8982 92.2338C79.7523 92.2338 78.8233 91.4857 78.8233 90.5629C78.8233 89.6401 79.7523 88.8921 80.8982 88.8921C82.0442 88.8921 82.9731 89.6401 82.9731 90.5629C82.9731 91.4857 82.0442 92.2338 80.8982 92.2338Z" fill="#E1E4E5"/>
<path d="M107.397 4.10282C108 6.3687 106.664 8.69774 104.413 9.30488C102.162 9.91202 99.8478 8.56735 99.2446 6.30147C98.6414 4.03559 99.9774 1.70655 102.229 1.09941C104.48 0.492265 106.794 1.83694 107.397 4.10282Z" fill="#E1E4E5"/>
<path d="M29.2988 21.6211H29.3283C29.5033 24.1173 31.3477 24.1558 31.3477 24.1558C31.3477 24.1558 29.314 24.1958 29.314 27.0799C29.314 24.1958 27.2801 24.1558 27.2801 24.1558C27.2801 24.1558 29.1238 24.1173 29.2988 21.6211ZM26.2086 86.9612H26.2372C26.4052 89.4499 28.176 89.4884 28.176 89.4884C28.176 89.4884 26.2234 89.5282 26.2234 92.4038C26.2234 89.5282 24.2705 89.4884 24.2705 89.4884C24.2705 89.4884 26.0407 89.4499 26.2086 86.9612Z" fill="#E1E4E5"/>
<defs>
<linearGradient id="paint0_linear_175_2512" x1="145.622" y1="37.3581" x2="171.054" y2="17.3707" gradientUnits="userSpaceOnUse">
<stop stop-color="white"/>
<stop offset="1" stop-color="#EEEEEE"/>
</linearGradient>
<linearGradient id="paint1_linear_175_2512" x1="41.1526" y1="72.4711" x2="2.90094" y2="37.159" gradientUnits="userSpaceOnUse">
<stop stop-color="white"/>
<stop offset="1" stop-color="#EEEEEE"/>
</linearGradient>
</defs>
</svg>
