<svg width="197" height="104" viewBox="0 0 197 104" fill="none" xmlns="http://www.w3.org/2000/svg">
<path d="M124.36 67.0059V99.9988M152.822 33.8818V100M95.8986 50.4393V99.9995M67.5828 67.0059V99.9988M39.1214 33.8818V100M10.6597 83.5654V100" stroke="#6FC067" stroke-width="6.1913" stroke-linecap="round" stroke-linejoin="round"/>
<path d="M195 65.4581H175.776M195 76.812H175.775M175.776 55.8886H188.592M175.775 86.3818H188.592M175.776 46.3188H178.98M175.775 95.9512H178.979" stroke="#E1E4E5" stroke-width="2.19297" stroke-linecap="round" stroke-linejoin="round"/>
<path d="M188.875 28.0122L157.548 15.5957C157.069 15.4056 156.557 15.3113 156.041 15.3182C155.525 15.3252 155.016 15.4333 154.542 15.6364L123.571 28.9114M123.566 28.8389L92.2389 16.4221C91.7598 16.2319 91.2478 16.1376 90.732 16.1446C90.2163 16.1517 89.707 16.2599 89.2333 16.4631L58.2617 29.7381" stroke="#E1E4E5" stroke-width="0.677626" stroke-linecap="round" stroke-linejoin="round"/>
<path d="M92.0672 12.8264C93.9658 13.5789 94.8922 15.7213 94.1363 17.6116C93.3805 19.5019 91.2285 20.4242 89.3299 19.6717C87.4312 18.9191 86.5048 16.7767 87.2607 14.8864C88.0166 12.9961 90.1685 12.0738 92.0672 12.8264Z" fill="#E1E4E5"/>
<path d="M59.325 26.5612C61.2236 27.3138 62.15 29.4562 61.3941 31.3465C60.6383 33.2368 58.4864 34.1591 56.5877 33.4065C54.6891 32.654 53.7627 30.5116 54.5185 28.6213C55.2744 26.731 57.4263 25.8087 59.325 26.5612Z" fill="#E1E4E5"/>
<path d="M124.636 25.7351C126.534 26.4876 127.461 28.63 126.705 30.5203C125.949 32.4106 123.797 33.3329 121.898 32.5804C120 31.8278 119.073 29.6854 119.829 27.7951C120.585 25.9048 122.737 24.9825 124.636 25.7351Z" fill="#E1E4E5"/>
<path d="M157.234 12.3605C159.132 13.1131 160.059 15.2555 159.303 17.1458C158.547 19.0361 156.395 19.9584 154.496 19.2059C152.598 18.4533 151.671 16.3109 152.427 14.4206C153.183 12.5303 155.335 11.608 157.234 12.3605Z" fill="#E1E4E5"/>
<path d="M190.196 25.4006C192.094 26.1531 193.021 28.2956 192.265 30.1858C191.509 32.0761 189.357 32.9984 187.458 32.2459C185.56 31.4934 184.633 29.3509 185.389 27.4606C186.145 25.5704 188.297 24.648 190.196 25.4006Z" fill="#E1E4E5"/>
<path fill-rule="evenodd" clip-rule="evenodd" d="M0.471676 53.4984H1.55251C1.81353 53.4984 2.02418 53.7098 2.02418 53.968V55.0438C2.02418 55.304 1.81149 55.5134 1.55251 55.5134H0.471676C0.346718 55.5129 0.227007 55.4633 0.138648 55.3753C0.050289 55.2873 0.000449473 55.1682 1.10956e-06 55.0438V53.968C-0.000133481 53.9063 0.0119777 53.8452 0.0356339 53.7882C0.0592901 53.7311 0.0940277 53.6793 0.137854 53.6357C0.181679 53.592 0.233727 53.5575 0.291014 53.5339C0.348301 53.5103 0.409697 53.4983 0.471676 53.4984ZM4.21819 53.4984H5.29902C5.558 53.4984 5.77069 53.7098 5.77069 53.968V55.0438C5.77069 55.304 5.558 55.5134 5.29902 55.5134H4.21819C4.09323 55.5129 3.97352 55.4633 3.88516 55.3753C3.7968 55.2873 3.74696 55.1682 3.74651 55.0438V53.968C3.74651 53.7098 3.95921 53.4984 4.21819 53.4984ZM7.96742 53.4984H9.04825C9.30723 53.4984 9.51993 53.7098 9.51993 53.968V55.0438C9.51993 55.304 9.30723 55.5134 9.04825 55.5134H7.96742C7.84246 55.5129 7.72275 55.4633 7.63439 55.3753C7.54603 55.2873 7.49619 55.1682 7.49574 55.0438V53.968C7.49561 53.9063 7.50772 53.8452 7.53137 53.7882C7.55503 53.7311 7.58977 53.6793 7.63359 53.6357C7.67742 53.592 7.72947 53.5575 7.78676 53.5339C7.84404 53.5103 7.90544 53.4983 7.96742 53.4984ZM11.7143 53.4984H12.7948C13.0537 53.4984 13.2664 53.7098 13.2664 53.968V55.0438C13.2664 55.304 13.0537 55.5134 12.7948 55.5134H11.7143C11.5889 55.5134 11.4687 55.464 11.3799 55.376C11.2911 55.288 11.2408 55.1685 11.2402 55.0438V53.968C11.2415 53.8435 11.292 53.7245 11.3807 53.6366C11.4694 53.5488 11.5892 53.4991 11.7143 53.4984ZM15.4611 53.4984H16.5416C16.803 53.4984 17.0157 53.7098 17.0157 53.968V55.0438C17.0157 55.304 16.803 55.5134 16.5416 55.5134H15.4611C15.3362 55.5129 15.2164 55.4633 15.1281 55.3753C15.0397 55.2873 14.9899 55.1682 14.9894 55.0438V53.968C14.9894 53.7098 15.2021 53.4984 15.4611 53.4984ZM4.35567 57.5659H5.43616C5.69548 57.5659 5.90784 57.7776 5.90784 58.0355V59.1136C5.90784 59.3714 5.69548 59.5832 5.43616 59.5832H4.35567C4.2306 59.5831 4.11068 59.5336 4.02225 59.4455C3.93381 59.3575 3.88409 59.2381 3.884 59.1136V58.0375C3.88369 57.9757 3.89565 57.9144 3.91922 57.8571C3.94279 57.7999 3.97749 57.7479 4.02132 57.704C4.06516 57.6602 4.11726 57.6254 4.17464 57.6017C4.23202 57.578 4.29354 57.5658 4.35567 57.5659ZM8.10252 57.5659H9.18302C9.442 57.5659 9.65469 57.7776 9.65469 58.0355V59.1136C9.65469 59.3714 9.442 59.5832 9.18302 59.5832H8.10252C7.97756 59.5827 7.85785 59.5331 7.76949 59.4451C7.68114 59.3572 7.6313 59.238 7.63085 59.1136V58.0375C7.63049 57.9757 7.64243 57.9143 7.66598 57.8571C7.68953 57.7998 7.72423 57.7478 7.76807 57.7039C7.81192 57.6601 7.86404 57.6253 7.92144 57.6016C7.97884 57.5779 8.04038 57.5658 8.10252 57.5659ZM11.8494 57.5659H12.9302C13.1912 57.5659 13.4039 57.7776 13.4039 58.0355V59.1136C13.4039 59.3714 13.1912 59.5832 12.9302 59.5832H11.8494C11.7244 59.5826 11.6048 59.533 11.5164 59.445C11.4281 59.3571 11.3782 59.238 11.3777 59.1136V58.0375C11.3777 57.7776 11.5904 57.5659 11.8494 57.5659ZM7.96742 49.1284H9.04825C9.30723 49.1284 9.51993 49.3402 9.51993 49.598V50.6741C9.51993 50.9343 9.30723 51.1437 9.04825 51.1437H7.96742C7.84249 51.1431 7.72283 51.0935 7.63449 51.0055C7.54615 50.9176 7.49628 50.7985 7.49574 50.6741V49.598C7.49561 49.5363 7.50772 49.4752 7.53137 49.4181C7.55503 49.3611 7.58977 49.3093 7.63359 49.2657C7.67742 49.222 7.72947 49.1874 7.78676 49.1639C7.84404 49.1403 7.90544 49.1283 7.96742 49.1284ZM11.7143 49.1284H12.7948C13.0537 49.1284 13.2664 49.3402 13.2664 49.598V50.6741C13.2664 50.9343 13.0537 51.1437 12.7948 51.1437H11.7143C11.5889 51.1437 11.4687 51.0943 11.3799 51.0063C11.2911 50.9183 11.2408 50.7989 11.2402 50.6741V49.598C11.2416 49.4735 11.2921 49.3545 11.3808 49.2667C11.4694 49.1789 11.5892 49.1292 11.7143 49.1284Z" fill="#E1E4E5"/>
<path d="M23.1532 25.071C21.65 25.071 20.4313 23.8578 20.4313 22.3612C20.4313 20.8646 21.65 19.6514 23.1532 19.6514C24.6564 19.6514 25.875 20.8646 25.875 22.3612C25.875 23.8578 24.6564 25.071 23.1532 25.071Z" fill="#6FC067"/>
<path d="M176.185 12.305C173.315 12.305 170.989 9.98895 170.989 7.13198C170.989 4.27501 173.315 1.95898 176.185 1.95898C179.055 1.95898 181.381 4.27501 181.381 7.13198C181.381 9.98895 179.055 12.305 176.185 12.305Z" fill="#6FC067"/>
<path d="M125.266 52.238C124.309 52.238 123.534 51.466 123.534 50.5138C123.534 49.5615 124.309 48.7896 125.266 48.7896C126.222 48.7896 126.998 49.5615 126.998 50.5138C126.998 51.466 126.222 52.238 125.266 52.238Z" fill="#E1E4E5"/>
<path d="M121.597 4.92702C120.23 4.92702 119.122 3.82407 119.122 2.46351C119.122 1.10295 120.23 0 121.597 0C122.963 0 124.071 1.10295 124.071 2.46351C124.071 3.82407 122.963 4.92702 121.597 4.92702Z" fill="#E1E4E5"/>
</svg>
