<svg xmlns="http://www.w3.org/2000/svg" width="24" height="24" viewBox="0 0 24 24" fill="none">
  <path d="M3.5 22C3.1 22 2.75 21.85 2.45 21.55C2.15 21.25 2 20.9 2 20.5V7.5C2 7.1 2.15 6.75 2.45 6.45C2.75 6.15 3.1 6 3.5 6H8V3.5C8 3.1 8.15 2.75 8.45 2.45C8.75 2.15 9.1 2 9.5 2H14.5C14.9 2 15.25 2.15 15.55 2.45C15.85 2.75 16 3.1 16 3.5V6H20.5C20.9 6 21.25 6.15 21.55 6.45C21.85 6.75 22 7.1 22 7.5V20.5C22 20.9 21.85 21.25 21.55 21.55C21.25 21.85 20.9 22 20.5 22H3.5ZM9.5 6H14.5V3.5H9.5V6ZM11.25 14.75V17.75H12.75V14.75H15.75V13.25H12.75V10.25H11.25V13.25H8.25V14.75H11.25Z" fill="white"/>
</svg>